<svg xmlns="http://www.w3.org/2000/svg" viewBox="0 0 64 64" role="img" aria-label="AutoLink favicon">
  <defs>
    <linearGradient id="bg" x1="0" y1="0" x2="1" y2="1">
      <stop offset="0%" stop-color="#111827"/>
      <stop offset="100%" stop-color="#1f2937"/>
    </linearGradient>
    <linearGradient id="accent" x1="0" y1="0" x2="1" y2="0">
      <stop offset="0%" stop-color="#f97316"/>
      <stop offset="100%" stop-color="#fb923c"/>
    </linearGradient>
  </defs>

  <rect x="2" y="2" width="60" height="60" rx="14" fill="url(#bg)"/>

  <path d="M14 38c0-2.3 1.9-4.2 4.2-4.2h1.1l2.4-7.2c.6-1.7 2.2-2.8 4-2.8h12.6c1.8 0 3.4 1.1 4 2.8l2.4 7.2h1.1c2.3 0 4.2 1.9 4.2 4.2v6.5c0 1-.8 1.8-1.8 1.8h-1.7c-1 0-1.8-.8-1.8-1.8v-1.1H19.3v1.1c0 1-.8 1.8-1.8 1.8h-1.7c-1 0-1.8-.8-1.8-1.8V38z" fill="#e5e7eb"/>
  <path d="M24.9 27.6h14.2c.6 0 1.2.4 1.4 1l1.6 5H22l1.6-5c.2-.6.7-1 1.3-1z" fill="url(#accent)"/>

  <circle cx="22.5" cy="40.2" r="3.2" fill="#111827"/>
  <circle cx="41.5" cy="40.2" r="3.2" fill="#111827"/>
</svg>
